<svg preserveAspectRatio="xMidYMid meet" width="116" height="116" viewBox="0 0 640 640" fill="none" xmlns="http://www.w3.org/2000/svg"><!--! Font Awesome Free 7.0.1 by @fontawesome - https://fontawesome.com License - https://fontawesome.com/license/free (Icons: CC BY 4.0, Fonts: SIL OFL 1.1, Code: MIT License) Copyright 2025 Fonticons, Inc. --><path fill-rule="evenodd" clip-rule="evenodd" fill="white" d="M160 128C160 110.3 174.3 96 192 96L320 96C408.4 96 480 167.6 480 256C480 344.4 408.4 416 320 416L224 416L224 512C224 529.7 209.7 544 192 544C174.3 544 160 529.7 160 512L160 128zM224 352L320 352C373 352 416 309 416 256C416 203 373 160 320 160L224 160L224 352z"/></svg>
