<?xml version="1.0" encoding="iso-8859-1"?>
<!-- Loupedeck.Test6Plugin.ActionIconDynamicCommand1.svg -->
<svg height="800px" width="800px" version="1.1" id="Layer_1" xmlns="http://www.w3.org/2000/svg" xmlns:xlink="http://www.w3.org/1999/xlink" 
	 viewBox="0 0 496.158 496.158" xml:space="preserve">
<path style="fill:#FFFFFF;" d="M278.767,145.419c-3.126-4.003-7.276-6.006-12.451-6.006c-4.591,0-7.716,0.879-9.375,2.637
	c-1.662,1.758-5.226,6.445-10.693,14.063c-5.47,7.617-11.744,14.502-18.823,20.654c-7.082,6.152-16.53,12.012-28.345,17.578
	c-7.91,3.712-13.429,6.738-16.553,9.082c-3.126,2.344-4.688,6.006-4.688,10.986c0,4.298,1.586,8.082,4.761,11.353
	c3.172,3.273,6.812,4.907,10.913,4.907c8.592,0,25.292-9.521,50.098-28.564V335.41c0,7.814,1.806,13.722,5.42,17.725
	c3.612,4.003,8.397,6.006,14.355,6.006c13.378,0,20.068-9.814,20.068-29.443V161.972
	C283.455,154.941,281.892,149.425,278.767,145.419z"/>
</svg>